<mxfile host="app.diagrams.net" modified="2021-08-11T03:07:20.654Z" agent="5.0 (Windows NT 10.0; Win64; x64) AppleWebKit/537.36 (KHTML, like Gecko) Chrome/92.0.4515.131 Safari/537.36" etag="GclytvSOVPhZ8I38eBQ6" version="14.9.6" type="github" pages="2">
  <diagram id="xAZk6xImL0anoJP635Of" name="直播间优化">
    <mxGraphModel dx="1422" dy="1930" grid="0" gridSize="10" guides="1" tooltips="1" connect="1" arrows="1" fold="1" page="1" pageScale="1" pageWidth="827" pageHeight="1169" math="0" shadow="0">
      <root>
        <mxCell id="0" />
        <mxCell id="1" parent="0" />
        <mxCell id="gB-iFTg1nMOSrqPXeTVC-6" style="edgeStyle=orthogonalEdgeStyle;rounded=0;orthogonalLoop=1;jettySize=auto;html=1;exitX=0.5;exitY=1;exitDx=0;exitDy=0;" edge="1" parent="1" source="gB-iFTg1nMOSrqPXeTVC-1" target="gB-iFTg1nMOSrqPXeTVC-5">
          <mxGeometry relative="1" as="geometry" />
        </mxCell>
        <mxCell id="gB-iFTg1nMOSrqPXeTVC-1" value="initProtocol" style="rounded=1;whiteSpace=wrap;html=1;" vertex="1" parent="1">
          <mxGeometry x="243" y="164" width="120" height="60" as="geometry" />
        </mxCell>
        <mxCell id="gB-iFTg1nMOSrqPXeTVC-9" style="edgeStyle=orthogonalEdgeStyle;rounded=0;orthogonalLoop=1;jettySize=auto;html=1;exitX=0.5;exitY=1;exitDx=0;exitDy=0;" edge="1" parent="1" source="gB-iFTg1nMOSrqPXeTVC-2" target="gB-iFTg1nMOSrqPXeTVC-8">
          <mxGeometry relative="1" as="geometry" />
        </mxCell>
        <mxCell id="gB-iFTg1nMOSrqPXeTVC-2" value="createView" style="rounded=1;whiteSpace=wrap;html=1;" vertex="1" parent="1">
          <mxGeometry x="673" y="161" width="120" height="60" as="geometry" />
        </mxCell>
        <mxCell id="gB-iFTg1nMOSrqPXeTVC-12" style="edgeStyle=orthogonalEdgeStyle;rounded=0;orthogonalLoop=1;jettySize=auto;html=1;exitX=0;exitY=0.5;exitDx=0;exitDy=0;" edge="1" parent="1" source="gB-iFTg1nMOSrqPXeTVC-3" target="gB-iFTg1nMOSrqPXeTVC-11">
          <mxGeometry relative="1" as="geometry" />
        </mxCell>
        <mxCell id="gB-iFTg1nMOSrqPXeTVC-21" style="edgeStyle=orthogonalEdgeStyle;rounded=0;orthogonalLoop=1;jettySize=auto;html=1;exitX=1;exitY=0.5;exitDx=0;exitDy=0;" edge="1" parent="1" source="gB-iFTg1nMOSrqPXeTVC-3" target="gB-iFTg1nMOSrqPXeTVC-20">
          <mxGeometry relative="1" as="geometry" />
        </mxCell>
        <mxCell id="gB-iFTg1nMOSrqPXeTVC-3" value="XXXImpl" style="rounded=1;whiteSpace=wrap;html=1;" vertex="1" parent="1">
          <mxGeometry x="243" y="404" width="120" height="60" as="geometry" />
        </mxCell>
        <mxCell id="gB-iFTg1nMOSrqPXeTVC-4" value="initView" style="rounded=1;whiteSpace=wrap;html=1;" vertex="1" parent="1">
          <mxGeometry x="673" y="404" width="120" height="60" as="geometry" />
        </mxCell>
        <mxCell id="gB-iFTg1nMOSrqPXeTVC-7" style="edgeStyle=orthogonalEdgeStyle;rounded=0;orthogonalLoop=1;jettySize=auto;html=1;exitX=0.5;exitY=1;exitDx=0;exitDy=0;" edge="1" parent="1" source="gB-iFTg1nMOSrqPXeTVC-5" target="gB-iFTg1nMOSrqPXeTVC-3">
          <mxGeometry relative="1" as="geometry" />
        </mxCell>
        <mxCell id="gB-iFTg1nMOSrqPXeTVC-5" value="ThreadPool" style="rounded=1;whiteSpace=wrap;html=1;" vertex="1" parent="1">
          <mxGeometry x="243" y="278" width="120" height="60" as="geometry" />
        </mxCell>
        <mxCell id="gB-iFTg1nMOSrqPXeTVC-10" style="edgeStyle=orthogonalEdgeStyle;rounded=0;orthogonalLoop=1;jettySize=auto;html=1;exitX=0.5;exitY=1;exitDx=0;exitDy=0;" edge="1" parent="1" source="gB-iFTg1nMOSrqPXeTVC-8" target="gB-iFTg1nMOSrqPXeTVC-4">
          <mxGeometry relative="1" as="geometry" />
        </mxCell>
        <mxCell id="gB-iFTg1nMOSrqPXeTVC-8" value="AsyncLayoutInflater" style="rounded=1;whiteSpace=wrap;html=1;" vertex="1" parent="1">
          <mxGeometry x="673" y="276" width="120" height="60" as="geometry" />
        </mxCell>
        <mxCell id="gB-iFTg1nMOSrqPXeTVC-13" style="edgeStyle=orthogonalEdgeStyle;rounded=0;orthogonalLoop=1;jettySize=auto;html=1;exitX=1;exitY=0.5;exitDx=0;exitDy=0;entryX=0.5;entryY=1;entryDx=0;entryDy=0;" edge="1" parent="1" source="gB-iFTg1nMOSrqPXeTVC-11" target="gB-iFTg1nMOSrqPXeTVC-3">
          <mxGeometry relative="1" as="geometry" />
        </mxCell>
        <mxCell id="gB-iFTg1nMOSrqPXeTVC-11" value="后台" style="rounded=1;whiteSpace=wrap;html=1;" vertex="1" parent="1">
          <mxGeometry x="35" y="482" width="120" height="60" as="geometry" />
        </mxCell>
        <mxCell id="gB-iFTg1nMOSrqPXeTVC-15" style="edgeStyle=orthogonalEdgeStyle;rounded=0;orthogonalLoop=1;jettySize=auto;html=1;exitX=0;exitY=0.5;exitDx=0;exitDy=0;" edge="1" parent="1" source="gB-iFTg1nMOSrqPXeTVC-14" target="gB-iFTg1nMOSrqPXeTVC-1">
          <mxGeometry relative="1" as="geometry" />
        </mxCell>
        <mxCell id="gB-iFTg1nMOSrqPXeTVC-16" style="edgeStyle=orthogonalEdgeStyle;rounded=0;orthogonalLoop=1;jettySize=auto;html=1;exitX=1;exitY=0.5;exitDx=0;exitDy=0;entryX=0.5;entryY=0;entryDx=0;entryDy=0;" edge="1" parent="1" source="gB-iFTg1nMOSrqPXeTVC-14" target="gB-iFTg1nMOSrqPXeTVC-2">
          <mxGeometry relative="1" as="geometry" />
        </mxCell>
        <mxCell id="gB-iFTg1nMOSrqPXeTVC-14" value="ELManagerConfig" style="rounded=1;whiteSpace=wrap;html=1;" vertex="1" parent="1">
          <mxGeometry x="465" y="32" width="120" height="60" as="geometry" />
        </mxCell>
        <mxCell id="gB-iFTg1nMOSrqPXeTVC-22" style="edgeStyle=orthogonalEdgeStyle;rounded=0;orthogonalLoop=1;jettySize=auto;html=1;exitX=1;exitY=0.5;exitDx=0;exitDy=0;" edge="1" parent="1" source="gB-iFTg1nMOSrqPXeTVC-20" target="gB-iFTg1nMOSrqPXeTVC-4">
          <mxGeometry relative="1" as="geometry" />
        </mxCell>
        <mxCell id="gB-iFTg1nMOSrqPXeTVC-20" value="ViewModel" style="rounded=1;whiteSpace=wrap;html=1;" vertex="1" parent="1">
          <mxGeometry x="458" y="404" width="120" height="60" as="geometry" />
        </mxCell>
        <mxCell id="x4ZEdnHXa9wkFcLiSyGv-4" style="edgeStyle=orthogonalEdgeStyle;rounded=0;orthogonalLoop=1;jettySize=auto;html=1;exitX=0.5;exitY=1;exitDx=0;exitDy=0;" edge="1" parent="1" source="x4ZEdnHXa9wkFcLiSyGv-1" target="gB-iFTg1nMOSrqPXeTVC-14">
          <mxGeometry relative="1" as="geometry" />
        </mxCell>
        <mxCell id="x4ZEdnHXa9wkFcLiSyGv-1" value="ELManagerConfig" style="rounded=1;whiteSpace=wrap;html=1;" vertex="1" parent="1">
          <mxGeometry x="465" y="-154" width="120" height="60" as="geometry" />
        </mxCell>
        <mxCell id="x4ZEdnHXa9wkFcLiSyGv-5" style="edgeStyle=orthogonalEdgeStyle;rounded=0;orthogonalLoop=1;jettySize=auto;html=1;exitX=0;exitY=0.5;exitDx=0;exitDy=0;" edge="1" parent="1" source="x4ZEdnHXa9wkFcLiSyGv-2" target="gB-iFTg1nMOSrqPXeTVC-14">
          <mxGeometry relative="1" as="geometry" />
        </mxCell>
        <mxCell id="x4ZEdnHXa9wkFcLiSyGv-2" value="ProrityList" style="rounded=1;whiteSpace=wrap;html=1;" vertex="1" parent="1">
          <mxGeometry x="676" y="-57" width="120" height="60" as="geometry" />
        </mxCell>
      </root>
    </mxGraphModel>
  </diagram>
  <diagram id="63XYu2e07B149FznHW5y" name="旧直播间流程">
    <mxGraphModel dx="1422" dy="761" grid="0" gridSize="10" guides="1" tooltips="1" connect="1" arrows="1" fold="1" page="1" pageScale="1" pageWidth="827" pageHeight="1169" math="0" shadow="0">
      <root>
        <mxCell id="rwaVNzZdTJwa55KkwHrY-0" />
        <mxCell id="rwaVNzZdTJwa55KkwHrY-1" parent="rwaVNzZdTJwa55KkwHrY-0" />
        <mxCell id="cGW_1NRgEzkDamvG8sv6-16" style="edgeStyle=orthogonalEdgeStyle;rounded=0;orthogonalLoop=1;jettySize=auto;html=1;exitX=0.5;exitY=1;exitDx=0;exitDy=0;" edge="1" parent="rwaVNzZdTJwa55KkwHrY-1" source="cGW_1NRgEzkDamvG8sv6-1" target="cGW_1NRgEzkDamvG8sv6-10">
          <mxGeometry relative="1" as="geometry" />
        </mxCell>
        <mxCell id="cGW_1NRgEzkDamvG8sv6-1" value="createView" style="rounded=1;whiteSpace=wrap;html=1;" vertex="1" parent="rwaVNzZdTJwa55KkwHrY-1">
          <mxGeometry x="92" y="320" width="120" height="60" as="geometry" />
        </mxCell>
        <mxCell id="cGW_1NRgEzkDamvG8sv6-9" style="edgeStyle=orthogonalEdgeStyle;rounded=0;orthogonalLoop=1;jettySize=auto;html=1;exitX=0.5;exitY=1;exitDx=0;exitDy=0;" edge="1" parent="rwaVNzZdTJwa55KkwHrY-1" source="cGW_1NRgEzkDamvG8sv6-6" target="cGW_1NRgEzkDamvG8sv6-1">
          <mxGeometry relative="1" as="geometry" />
        </mxCell>
        <mxCell id="cGW_1NRgEzkDamvG8sv6-6" value="ELManagerConfig" style="rounded=1;whiteSpace=wrap;html=1;" vertex="1" parent="rwaVNzZdTJwa55KkwHrY-1">
          <mxGeometry x="92" y="186" width="120" height="60" as="geometry" />
        </mxCell>
        <mxCell id="cGW_1NRgEzkDamvG8sv6-12" style="edgeStyle=orthogonalEdgeStyle;rounded=0;orthogonalLoop=1;jettySize=auto;html=1;exitX=1;exitY=0.5;exitDx=0;exitDy=0;" edge="1" parent="rwaVNzZdTJwa55KkwHrY-1" source="cGW_1NRgEzkDamvG8sv6-10" target="cGW_1NRgEzkDamvG8sv6-11">
          <mxGeometry relative="1" as="geometry" />
        </mxCell>
        <mxCell id="cGW_1NRgEzkDamvG8sv6-10" value="initProtocol" style="rounded=1;whiteSpace=wrap;html=1;" vertex="1" parent="rwaVNzZdTJwa55KkwHrY-1">
          <mxGeometry x="92" y="448" width="120" height="60" as="geometry" />
        </mxCell>
        <mxCell id="cGW_1NRgEzkDamvG8sv6-14" style="edgeStyle=orthogonalEdgeStyle;rounded=0;orthogonalLoop=1;jettySize=auto;html=1;exitX=1;exitY=0.5;exitDx=0;exitDy=0;" edge="1" parent="rwaVNzZdTJwa55KkwHrY-1" source="cGW_1NRgEzkDamvG8sv6-11" target="cGW_1NRgEzkDamvG8sv6-13">
          <mxGeometry relative="1" as="geometry" />
        </mxCell>
        <mxCell id="cGW_1NRgEzkDamvG8sv6-18" style="edgeStyle=orthogonalEdgeStyle;rounded=0;orthogonalLoop=1;jettySize=auto;html=1;exitX=0.25;exitY=1;exitDx=0;exitDy=0;entryX=1;entryY=0.5;entryDx=0;entryDy=0;" edge="1" parent="rwaVNzZdTJwa55KkwHrY-1" source="cGW_1NRgEzkDamvG8sv6-11" target="cGW_1NRgEzkDamvG8sv6-17">
          <mxGeometry relative="1" as="geometry" />
        </mxCell>
        <mxCell id="cGW_1NRgEzkDamvG8sv6-11" value="XXXImpl" style="rounded=1;whiteSpace=wrap;html=1;" vertex="1" parent="rwaVNzZdTJwa55KkwHrY-1">
          <mxGeometry x="308" y="448" width="120" height="60" as="geometry" />
        </mxCell>
        <mxCell id="cGW_1NRgEzkDamvG8sv6-15" style="edgeStyle=orthogonalEdgeStyle;rounded=0;orthogonalLoop=1;jettySize=auto;html=1;exitX=0;exitY=0.5;exitDx=0;exitDy=0;entryX=0.5;entryY=1;entryDx=0;entryDy=0;" edge="1" parent="rwaVNzZdTJwa55KkwHrY-1" source="cGW_1NRgEzkDamvG8sv6-13" target="cGW_1NRgEzkDamvG8sv6-11">
          <mxGeometry relative="1" as="geometry" />
        </mxCell>
        <mxCell id="cGW_1NRgEzkDamvG8sv6-13" value="&amp;nbsp;后台" style="rounded=1;whiteSpace=wrap;html=1;" vertex="1" parent="rwaVNzZdTJwa55KkwHrY-1">
          <mxGeometry x="528" y="525" width="120" height="60" as="geometry" />
        </mxCell>
        <mxCell id="cGW_1NRgEzkDamvG8sv6-17" value="ViewData" style="rounded=1;whiteSpace=wrap;html=1;" vertex="1" parent="rwaVNzZdTJwa55KkwHrY-1">
          <mxGeometry x="92" y="563" width="120" height="60" as="geometry" />
        </mxCell>
        <mxCell id="cGW_1NRgEzkDamvG8sv6-19" value="EventBus" style="text;html=1;strokeColor=none;fillColor=none;align=center;verticalAlign=middle;whiteSpace=wrap;rounded=0;" vertex="1" parent="rwaVNzZdTJwa55KkwHrY-1">
          <mxGeometry x="259" y="568" width="55" height="20" as="geometry" />
        </mxCell>
      </root>
    </mxGraphModel>
  </diagram>
</mxfile>
